<!-- 3: 밝은 슬레이트 배경 + 파일 스택(여러개) → 단일 파일 (병합/변환 개념) -->
<svg xmlns="http://www.w3.org/2000/svg" viewBox="0 0 512 512" width="512" height="512">
  <rect width="512" height="512" rx="114" fill="#F1F5F9"/>

  <!-- 왼쪽 파일 스택 (3장) -->
  <!-- 뒤 2 -->
  <rect x="56" y="184" width="140" height="172" rx="16" fill="#CBD5E1" transform="rotate(-10 126 270)"/>
  <!-- 뒤 1 -->
  <rect x="64" y="172" width="140" height="172" rx="16" fill="#94A3B8" transform="rotate(-4 134 258)"/>
  <!-- 앞 -->
  <rect x="72" y="160" width="140" height="172" rx="16" fill="#64748B"/>
  <path d="M184 160 L212 188 L184 188 Z" fill="#475569"/>
  <rect x="96" y="268" width="92" height="9" rx="4.5" fill="#94A3B8"/>
  <rect x="96" y="285" width="64" height="9" rx="4.5" fill="#94A3B8"/>

  <!-- 굵은 화살표 -->
  <rect x="224" y="246" width="56" height="20" rx="10" fill="#0F172A"/>
  <path d="M264 220 L298 256 L264 292 Z" fill="#0F172A"/>

  <!-- 오른쪽 단일 파일 (결과, 강조색) -->
  <rect x="308" y="168" width="148" height="184" rx="20" fill="#0F172A"/>
  <path d="M428 168 L456 196 L428 196 Z" fill="#1E293B"/>
  <rect x="332" y="284" width="100" height="10" rx="5" fill="#334155"/>
  <rect x="332" y="302" width="68" height="10" rx="5" fill="#334155"/>
  <!-- 체크 -->
  <path d="M336 244 L358 268 L408 212" stroke="#94A3B8" stroke-width="14" stroke-linecap="round" stroke-linejoin="round" fill="none"/>
</svg>
