<!-- 6: 오렌지-앰버 그라디언트 + 굵은 파일 + 번개 (빠른 변환, 에너지) -->
<svg xmlns="http://www.w3.org/2000/svg" viewBox="0 0 512 512" width="512" height="512">
  <defs>
    <linearGradient id="bg6" x1="0" y1="0" x2="512" y2="512" gradientUnits="userSpaceOnUse">
      <stop offset="0%" stop-color="#F97316"/>
      <stop offset="100%" stop-color="#EA580C"/>
    </linearGradient>
  </defs>
  <rect width="512" height="512" rx="114" fill="url(#bg6)"/>

  <!-- 왼쪽 파일 -->
  <rect x="52" y="148" width="156" height="196" rx="20" fill="white" opacity="0.22"/>
  <path d="M176 148 L208 180 L176 180 Z" fill="white" opacity="0.35"/>
  <rect x="76" y="272" width="108" height="11" rx="5.5" fill="white" opacity="0.25"/>
  <rect x="76" y="291" width="76" height="11" rx="5.5" fill="white" opacity="0.18"/>

  <!-- 오른쪽 파일 -->
  <rect x="304" y="168" width="156" height="196" rx="20" fill="white"/>
  <path d="M428 168 L460 200 L428 200 Z" fill="#FED7AA"/>
  <rect x="328" y="292" width="108" height="11" rx="5.5" fill="#FDBA74"/>
  <rect x="328" y="311" width="76" height="11" rx="5.5" fill="#FDBA74"/>

  <!-- 중앙 번개 화살표 -->
  <path d="M252 196 L224 260 L248 260 L236 316 L284 248 L256 248 L276 196 Z" fill="white"/>
</svg>
